<svg width="210" height="52" viewBox="0 0 210 52" fill="none" xmlns="http://www.w3.org/2000/svg">
<path d="M26.3355 15.8098L16.5826 38.2831L14.2467 38.3005L4.16007 15.975L6.72 15.9559L15.4407 35.3475L23.9355 15.8277L26.3355 15.8098ZM28.811 38.352C28.3416 38.3555 27.9351 38.1878 27.5912 37.8491C27.2687 37.5101 27.1056 37.0953 27.1019 36.6047C27.0982 36.114 27.2552 35.7075 27.5728 35.3851C27.9116 35.0413 28.3157 34.8676 28.785 34.8641C29.2543 34.8606 29.6609 35.0282 30.0048 35.367C30.3485 35.6845 30.5222 36.0885 30.5258 36.5792C30.5295 37.0698 30.3619 37.4871 30.0231 37.8309C29.6843 38.1748 29.2803 38.3485 28.811 38.352ZM42.3366 38.2832C40.6726 38.2956 39.0707 38.0409 37.5308 37.519C36.0122 36.997 34.8336 36.3017 33.9951 35.4333L34.9095 33.6024C35.7262 34.407 36.8084 35.0603 38.1562 35.5623C39.5038 36.0429 40.8923 36.2779 42.3216 36.2673C44.3268 36.2523 45.8281 35.8785 46.8253 35.1457C47.8224 34.3916 48.3166 33.4279 48.3078 32.2546C48.3012 31.3586 48.0185 30.646 47.4599 30.1168C46.9226 29.5875 46.2583 29.1871 45.4669 28.9156C44.6753 28.6229 43.5743 28.311 42.1638 27.9802C40.4754 27.5661 39.1284 27.1708 38.1229 26.7943C37.1172 26.3964 36.2487 25.7949 35.5174 24.9897C34.8073 24.1843 34.4472 23.0882 34.4368 21.7016C34.4284 20.571 34.7194 19.5448 35.3099 18.623C35.9002 17.6799 36.812 16.9264 38.0451 16.3626C39.2783 15.7987 40.8122 15.5099 42.6468 15.4963C43.9268 15.4867 45.1761 15.6588 46.3948 16.0124C47.6346 16.3445 48.7048 16.8165 49.6054 17.4285L48.8195 19.3224C47.8762 18.7107 46.8702 18.2595 45.8013 17.9688C44.7323 17.6568 43.6858 17.5046 42.6618 17.5122C40.6992 17.5268 39.2195 17.9219 38.2225 18.6973C37.2468 19.4513 36.7634 20.4256 36.7723 21.6202C36.779 22.5162 37.051 23.2395 37.5885 23.7902C38.1471 24.3194 38.8328 24.7303 39.6457 25.0229C40.4798 25.294 41.5914 25.5951 42.9805 25.9261C44.6262 26.3192 45.9518 26.7146 46.9575 27.1125C47.9843 27.4888 48.8527 28.0797 49.5628 28.8851C50.2726 29.6692 50.6326 30.7439 50.6428 32.1092C50.6512 33.2398 50.3496 34.2767 49.738 35.22C49.1475 36.1417 48.225 36.8846 46.9705 37.4487C45.7158 37.9914 44.1712 38.2695 42.3366 38.2832Z" fill="#E7D400" style="fill:#E7D400;fill:color(display-p3 0.9059 0.8314 0.0000);fill-opacity:1;"/>
<path d="M65.648 15.6H68.016V35.952H80.56V38H65.648V15.6ZM99.1218 21.168V38H96.9458V34.672C96.2631 35.8027 95.3564 36.6667 94.2258 37.264C93.1164 37.8613 91.8578 38.16 90.4498 38.16C88.8711 38.16 87.4418 37.7973 86.1618 37.072C84.8818 36.3467 83.8791 35.3333 83.1538 34.032C82.4284 32.7307 82.0658 31.248 82.0658 29.584C82.0658 27.92 82.4284 26.4373 83.1538 25.136C83.8791 23.8347 84.8818 22.832 86.1618 22.128C87.4418 21.4027 88.8711 21.04 90.4498 21.04C91.8151 21.04 93.0418 21.328 94.1298 21.904C95.2391 22.4587 96.1458 23.28 96.8498 24.368V21.168H99.1218ZM90.6418 36.144C91.8151 36.144 92.8711 35.8773 93.8098 35.344C94.7698 34.7893 95.5164 34.0107 96.0498 33.008C96.6044 32.0053 96.8818 30.864 96.8818 29.584C96.8818 28.304 96.6044 27.1627 96.0498 26.16C95.5164 25.1573 94.7698 24.3893 93.8098 23.856C92.8711 23.3013 91.8151 23.024 90.6418 23.024C89.4471 23.024 88.3698 23.3013 87.4098 23.856C86.4711 24.3893 85.7244 25.1573 85.1698 26.16C84.6364 27.1627 84.3698 28.304 84.3698 29.584C84.3698 30.864 84.6364 32.0053 85.1698 33.008C85.7244 34.0107 86.4711 34.7893 87.4098 35.344C88.3698 35.8773 89.4471 36.144 90.6418 36.144ZM121.033 21.168V35.952C121.033 38.8107 120.329 40.9227 118.921 42.288C117.535 43.6747 115.433 44.368 112.617 44.368C111.06 44.368 109.577 44.1333 108.169 43.664C106.783 43.216 105.652 42.5867 104.777 41.776L105.929 40.048C106.74 40.7733 107.721 41.3387 108.873 41.744C110.047 42.1493 111.273 42.352 112.553 42.352C114.687 42.352 116.255 41.8507 117.257 40.848C118.26 39.8667 118.761 38.3307 118.761 36.24V34.096C118.057 35.1627 117.129 35.9733 115.977 36.528C114.847 37.0827 113.588 37.36 112.201 37.36C110.623 37.36 109.183 37.0187 107.881 36.336C106.601 35.632 105.588 34.6613 104.841 33.424C104.116 32.1653 103.753 30.7467 103.753 29.168C103.753 27.5893 104.116 26.1813 104.841 24.944C105.588 23.7067 106.601 22.7467 107.881 22.064C109.161 21.3813 110.601 21.04 112.201 21.04C113.631 21.04 114.921 21.328 116.073 21.904C117.225 22.48 118.153 23.312 118.857 24.4V21.168H121.033ZM112.425 35.344C113.641 35.344 114.74 35.088 115.721 34.576C116.703 34.0427 117.46 33.3067 117.993 32.368C118.548 31.4293 118.825 30.3627 118.825 29.168C118.825 27.9733 118.548 26.9173 117.993 26C117.46 25.0613 116.703 24.336 115.721 23.824C114.761 23.2907 113.663 23.024 112.425 23.024C111.209 23.024 110.111 23.28 109.129 23.792C108.169 24.304 107.412 25.0293 106.857 25.968C106.324 26.9067 106.057 27.9733 106.057 29.168C106.057 30.3627 106.324 31.4293 106.857 32.368C107.412 33.3067 108.169 34.0427 109.129 34.576C110.111 35.088 111.209 35.344 112.425 35.344ZM142.555 21.168V38H140.379V34.928C139.781 35.952 138.96 36.752 137.915 37.328C136.869 37.8827 135.675 38.16 134.331 38.16C132.133 38.16 130.395 37.552 129.115 36.336C127.856 35.0987 127.227 33.296 127.227 30.928V21.168H129.499V30.704C129.499 32.4747 129.936 33.8187 130.811 34.736C131.685 35.6533 132.933 36.112 134.555 36.112C136.325 36.112 137.723 35.5787 138.747 34.512C139.771 33.424 140.283 31.92 140.283 30V21.168H142.555ZM157.494 21.04C159.606 21.04 161.281 21.6587 162.518 22.896C163.777 24.112 164.406 25.8933 164.406 28.24V38H162.134V28.464C162.134 26.7147 161.697 25.3813 160.822 24.464C159.947 23.5467 158.699 23.088 157.078 23.088C155.265 23.088 153.825 23.632 152.758 24.72C151.713 25.7867 151.19 27.2693 151.19 29.168V38H148.918V21.168H151.094V24.272C151.713 23.248 152.566 22.4587 153.654 21.904C154.763 21.328 156.043 21.04 157.494 21.04ZM177.517 38.16C175.895 38.16 174.434 37.7973 173.133 37.072C171.831 36.3253 170.807 35.3013 170.061 34C169.314 32.6987 168.941 31.2267 168.941 29.584C168.941 27.9413 169.314 26.4693 170.061 25.168C170.807 23.8667 171.831 22.8533 173.133 22.128C174.434 21.4027 175.895 21.04 177.517 21.04C179.138 21.04 180.599 21.4027 181.901 22.128C183.202 22.8533 184.215 23.8667 184.941 25.168C185.687 26.4693 186.061 27.9413 186.061 29.584C186.061 31.2267 185.687 32.6987 184.941 34C184.215 35.3013 183.202 36.3253 181.901 37.072C180.599 37.7973 179.138 38.16 177.517 38.16ZM177.517 36.144C178.711 36.144 179.778 35.8773 180.717 35.344C181.677 34.7893 182.423 34.0107 182.957 33.008C183.49 32.0053 183.757 30.864 183.757 29.584C183.757 28.304 183.49 27.1627 182.957 26.16C182.423 25.1573 181.677 24.3893 180.717 23.856C179.778 23.3013 178.711 23.024 177.517 23.024C176.322 23.024 175.245 23.3013 174.285 23.856C173.346 24.3893 172.599 25.1573 172.045 26.16C171.511 27.1627 171.245 28.304 171.245 29.584C171.245 30.864 171.511 32.0053 172.045 33.008C172.599 34.0107 173.346 34.7893 174.285 35.344C175.245 35.8773 176.322 36.144 177.517 36.144ZM204.375 21.168L196.887 38H194.551L187.095 21.168H189.463L195.767 35.504L202.135 21.168H204.375Z" fill="black" style="fill:black;fill-opacity:1;"/>
</svg>
