<svg width="96" height="95" viewBox="0 0 96 95" fill="none" xmlns="http://www.w3.org/2000/svg">
<path d="M46.5 18.5L48 0.5L52 18.5L53.5 28.5L58.5 35L64 40.5L72 44.5L83.5 46L95.5 47.5L83.5 49.5L72 51L64 54.5L58.5 60L53.5 66L52 76.5L50.5 84L48 94L46.5 76.5L44.5 66L40 60L34 54.5L24.5 51L14.5 49.5L1 47.5L11.5 46L24.5 44.5L34 40.5L40 35L44.5 28.5L46.5 18.5Z" fill="#59DD29" stroke="#59DD29" style="fill:#59DD29;fill:color(display-p3 0.3490 0.8667 0.1608);fill-opacity:1;stroke:#59DD29;stroke:color(display-p3 0.3490 0.8667 0.1608);stroke-opacity:1;"/>
</svg>
